<svg xmlns="http://www.w3.org/2000/svg" version="1.1" xmlns:xlink="http://www.w3.org/1999/xlink" xmlns:svgjs="http://svgjs.dev/svgjs" width="1500" height="1500" viewBox="0 0 1500 1500"><rect width="1500" height="1500" fill="#000000"></rect><g transform="matrix(0.6666666666666666,0,0,0.6666666666666666,250.51391652195923,110.85128205128217)"><svg viewBox="0 0 193 247" data-background-color="#000000" preserveAspectRatio="xMidYMid meet" height="1919" width="1500" xmlns="http://www.w3.org/2000/svg" xmlns:xlink="http://www.w3.org/1999/xlink"><g id="tight-bounds" transform="matrix(1,0,0,1,-0.09918588873813405,-0.09999999999999432)"><svg viewBox="0 0 193.19837177747624 247.2" height="247.2" width="193.19837177747624"><g><svg viewBox="0 0 193.19837177747624 247.2" height="247.2" width="193.19837177747624"><g><svg viewBox="0 0 193.19837177747624 247.2" height="247.2" width="193.19837177747624"><g id="textblocktransform"><svg viewBox="0 0 193.19837177747624 247.2" height="247.2" width="193.19837177747624" id="textblock"><g><svg viewBox="0 0 193.19837177747624 247.2" height="247.2" width="193.19837177747624"><g transform="matrix(1,0,0,1,0,0)"><svg width="193.19837177747624" viewBox="2.55 -36.5 28.8 36.85" height="247.2" data-palette-color="url(#03ddc10b-b98f-464a-9ffe-2435b3011230)"><g class="wordmark-text-0" data-fill-palette-color="primary" id="text-0"></g></svg></g></svg></g></svg></g></svg></g></svg></g><defs></defs><mask id="e1ac33b8-61f2-40a7-85cb-c3fcbbb16a24"><g id="SvgjsG2388"><svg viewBox="0 0 193.19837177747624 247.2" height="247.2" width="193.19837177747624"><g><svg viewBox="0 0 193.19837177747624 247.2" height="247.2" width="193.19837177747624"><g><svg viewBox="0 0 193.19837177747624 247.2" height="247.2" width="193.19837177747624"><g id="SvgjsG2387"><svg viewBox="0 0 193.19837177747624 247.2" height="247.2" width="193.19837177747624" id="SvgjsSvg2386"><g><svg viewBox="0 0 193.19837177747624 247.2" height="247.2" width="193.19837177747624"><g transform="matrix(1,0,0,1,0,0)"><svg width="193.19837177747624" viewBox="2.55 -36.5 28.8 36.85" height="247.2" data-palette-color="url(#03ddc10b-b98f-464a-9ffe-2435b3011230)"><g class="wordmark-text-0" data-fill-palette-color="primary" id="SvgjsG2385"><path d="M13.35 0.35L13.35 0.35Q8.8 0.35 5.9-1.35 3-3.05 3-6.9L3-6.9Q3-7.3 3.03-7.63 3.05-7.95 3.1-8.15L3.1-8.15Q3.3-9.55 3.95-11.6 4.6-13.65 5.45-15.98 6.3-18.3 7.1-20.55 7.9-22.8 8.45-24.68 9-26.55 9-27.7L9-27.7Q9-29 8.15-29L8.15-29Q7.2-29 5.8-27.58 4.4-26.15 2.85-23.6L2.85-23.6 2.55-23.75Q2.55-27.05 3.85-29.45 5.15-31.85 7.3-33.43 9.45-35 12.1-35.75 14.75-36.5 17.45-36.5L17.45-36.5Q20.8-36.5 23.75-35.43 26.7-34.35 28.58-32.35 30.45-30.35 30.45-27.45L30.45-27.45Q30.45-22.25 24.1-19.35L24.1-19.35Q27.85-18.5 29.6-16.5 31.35-14.5 31.35-12.05L31.35-12.05Q31.35-9.9 30.08-7.73 28.8-5.55 26.45-3.73 24.1-1.9 20.78-0.78 17.45 0.35 13.35 0.35ZM15.3-20.85L15.3-20.85Q17.6-20.8 19.33-21.58 21.05-22.35 22.03-23.58 23-24.8 23-26.1L23-26.1Q23-27.8 21.2-29.13 19.4-30.45 15.55-30.45L15.55-30.45Q15.75-29.5 15.83-28.55 15.9-27.6 15.9-26.7L15.9-26.7Q15.9-25.25 15.73-23.8 15.55-22.35 15.3-20.85ZM14.75-5.75L14.75-5.75Q16.9-5.75 18.55-6.63 20.2-7.5 21.15-8.88 22.1-10.25 22.1-11.7L22.1-11.7Q22.1-13.7 20.2-15.4 18.3-17.1 14.25-17.5L14.25-17.5Q14.05-15.95 13.43-14.2 12.8-12.45 12.25-10.85 11.7-9.25 11.7-8.05L11.7-8.05Q11.7-7 12.35-6.38 13-5.75 14.75-5.75Z" fill="white"></path></g></svg></g></svg></g></svg></g></svg></g></svg></g><defs><mask></mask></defs></svg><rect width="193.19837177747624" height="247.2" fill="black" stroke="none" visibility="hidden"></rect></g></mask><linearGradient x1="0" x2="1" y1="0.578" y2="0.595" id="03ddc10b-b98f-464a-9ffe-2435b3011230"><stop stop-color="#6ee2f5" offset="0"></stop><stop stop-color="#6454f0" offset="1"></stop></linearGradient><rect width="193.19837177747624" height="247.2" fill="#ffffff" mask="url(#e1ac33b8-61f2-40a7-85cb-c3fcbbb16a24)" data-fill-palette-color="primary"></rect></svg><rect width="193.19837177747624" height="247.2" fill="none" stroke="none" visibility="hidden"></rect></g></svg></g></svg>